<svg width="291" height="213" viewBox="0 0 291 213" fill="none" xmlns="http://www.w3.org/2000/svg">
<circle cx="78" cy="107" r="63" stroke="#0F1E53" stroke-width="30"/>
<rect x="78" width="213" height="213" fill="#152C7A"/>
<path d="M184.5 25L189.714 74.5803L209.994 29.0378L199.632 77.8027L232.992 40.7561L208.068 83.9321L251.244 59.0077L214.197 92.3685L262.962 82.0061L217.42 102.286L267 107.5L217.42 112.714L262.962 132.994L214.197 122.632L251.244 155.992L208.068 131.068L232.992 174.244L199.632 137.197L209.994 185.962L189.714 140.42L184.5 190L179.286 140.42L159.006 185.962L169.368 137.197L136.008 174.244L160.932 131.068L117.756 155.992L154.803 122.632L106.038 132.994L151.58 112.714L102 107.5L151.58 102.286L106.038 82.0061L154.803 92.3685L117.756 59.0077L160.932 83.9321L136.008 40.7561L169.368 77.8027L159.006 29.0378L179.286 74.5803L184.5 25Z" fill="#FFF9E9"/>
</svg>
