<svg width="348" height="204" viewBox="0 0 348 204" fill="none" xmlns="http://www.w3.org/2000/svg">
<path d="M13.8881 132.131L32.9696 41.2631L93.4227 9.00002" stroke="#0D5607" stroke-width="20"/>
<path d="M253.888 132.131L272.97 41.2631L333.423 9.00002" stroke="#0D5607" stroke-width="20"/>
<circle cx="64.5" cy="142.5" r="51.5" stroke="#176511" stroke-width="20"/>
<circle cx="203.5" cy="142.5" r="51.5" stroke="#176511" stroke-width="20"/>
<path d="M114 145.5H154" stroke="#176511" stroke-width="20"/>
<path d="M325 7L326.082 11.3873L329.95 9.05025L327.613 12.9178L332 14L327.613 15.0822L329.95 18.9497L326.082 16.6127L325 21L323.918 16.6127L320.05 18.9497L322.387 15.0822L318 14L322.387 12.9178L320.05 9.05025L323.918 11.3873L325 7Z" fill="#FFF9E9"/>
<path d="M84 7L85.0822 11.3873L88.9497 9.05025L86.6127 12.9178L91 14L86.6127 15.0822L88.9497 18.9497L85.0822 16.6127L84 21L82.9178 16.6127L79.0503 18.9497L81.3873 15.0822L77 14L81.3873 12.9178L79.0503 9.05025L82.9178 11.3873L84 7Z" fill="#FFF9E9"/>
</svg>
