<svg width="124" height="124" viewBox="0 0 124 124" fill="none" xmlns="http://www.w3.org/2000/svg">
<rect width="124" height="124" fill="#80C9FF"/>
<path d="M62.1287 14V109" stroke="#A6E4FF" stroke-width="5"/>
<path d="M46 21L62.7994 30.6991" stroke="#A6E4FF" stroke-width="5"/>
<path d="M78.2324 101.699L61.433 92" stroke="#A6E4FF" stroke-width="5"/>
<path d="M78.2324 21L61.433 30.6991" stroke="#A6E4FF" stroke-width="5"/>
<path d="M46 101.699L62.7994 92" stroke="#A6E4FF" stroke-width="5"/>
<path d="M21.0643 38.9463L103.337 86.4463" stroke="#A6E4FF" stroke-width="5"/>
<path d="M19.0622 56.4141L35.8615 46.7149" stroke="#A6E4FF" stroke-width="5"/>
<path d="M105.066 68.8495L88.2665 78.5486" stroke="#A6E4FF" stroke-width="5"/>
<path d="M35.1784 28.5V47.8983" stroke="#A6E4FF" stroke-width="5"/>
<path d="M88.9496 96.7637L88.9496 77.3654" stroke="#A6E4FF" stroke-width="5"/>
<path d="M103.337 37.9678L21.0643 85.4678" stroke="#A6E4FF" stroke-width="5"/>
<path d="M89.2102 27.5V46.8983" stroke="#A6E4FF" stroke-width="5"/>
<path d="M35.439 95.7637L35.439 76.3654" stroke="#A6E4FF" stroke-width="5"/>
<path d="M105.326 55.4141L88.5271 45.7149" stroke="#A6E4FF" stroke-width="5"/>
<path d="M19.3228 67.8496L36.1221 77.5487" stroke="#A6E4FF" stroke-width="5"/>
<circle cx="61.5" cy="61.5" r="56" stroke="#A6E4FF" stroke-width="5"/>
</svg>
