<svg width="137" height="137" viewBox="0 0 137 137" fill="none" xmlns="http://www.w3.org/2000/svg">
<path d="M68.5 0L72.1445 33.8245L82.742 1.49689L79.2743 35.34L96.3615 5.92213L85.9333 38.3047L108.763 13.0823L91.8302 42.5891L119.405 22.6646L96.7076 48.006L127.823 34.25L100.352 54.3185L133.647 47.3323L102.605 61.2508L136.625 61.3398L103.367 68.5L136.625 75.6602L102.605 75.7492L133.647 89.6677L100.352 82.6815L127.823 102.75L96.7076 88.994L119.405 114.335L91.8302 94.4109L108.763 123.918L85.9333 98.6953L96.3615 131.078L79.2743 101.66L82.742 135.503L72.1445 103.175L68.5 137L64.8555 103.175L54.258 135.503L57.7257 101.66L40.6385 131.078L51.0667 98.6953L28.2367 123.918L45.1698 94.4109L17.5946 114.335L40.2924 88.994L9.17726 102.75L36.6479 82.6815L3.35263 89.6677L34.3954 75.7492L0.375252 75.6602L33.6335 68.5L0.375252 61.3398L34.3954 61.2508L3.35263 47.3323L36.6479 54.3185L9.17726 34.25L40.2924 48.006L17.5946 22.6646L45.1698 42.5891L28.2367 13.0823L51.0667 38.3047L40.6385 5.92213L57.7257 35.34L54.258 1.49689L64.8555 33.8245L68.5 0Z" fill="#FFA1F0"/>
</svg>
