<svg width="70" height="34" viewBox="0 0 70 34" fill="none" xmlns="http://www.w3.org/2000/svg">
<g clip-path="url(#clip0_48_481)">
<path d="M0 0H53C62.3888 0 70 7.61116 70 17V17C70 26.3888 62.3888 34 53 34H17C7.61116 34 0 26.3888 0 17V0Z" fill="white"/>
<path d="M15.8951 24.2C14.8151 24.2 13.8284 23.9267 12.9351 23.38C12.0551 22.8333 11.3484 22.0333 10.8151 20.98C10.2951 19.9133 10.0351 18.6067 10.0351 17.06C10.0351 15.54 10.2951 14.24 10.8151 13.16C11.3484 12.08 12.0884 11.2533 13.0351 10.68C13.9817 10.0933 15.0884 9.8 16.3551 9.8C17.0217 9.8 17.7151 9.88667 18.4351 10.06C19.1684 10.22 19.9351 10.4733 20.7351 10.82L20.5751 14.1H19.3551L18.9551 11.68L19.3151 12.04C18.8084 11.8267 18.3017 11.6667 17.7951 11.56C17.2884 11.4533 16.8217 11.4 16.3951 11.4C15.5284 11.4 14.7817 11.62 14.1551 12.06C13.5417 12.4867 13.0684 13.1067 12.7351 13.92C12.4017 14.72 12.2351 15.6867 12.2351 16.82C12.2351 18.06 12.4151 19.1067 12.7751 19.96C13.1484 20.8 13.6484 21.44 14.2751 21.88C14.9151 22.3067 15.6284 22.52 16.4151 22.52C17.0017 22.52 17.6151 22.3933 18.2551 22.14C18.8951 21.8867 19.5217 21.5067 20.1351 21L20.9351 22.2C20.1351 22.88 19.3017 23.3867 18.4351 23.72C17.5684 24.04 16.7217 24.2 15.8951 24.2ZM25.1602 22.78L24.9802 22.54L26.6402 22.94V24H21.6602V22.94L23.3402 22.54L23.1602 22.78V9.92L23.3202 10.1L21.6602 9.72V8.66L25.1602 8.52V22.78ZM31.2601 22.78L31.0801 22.54L32.7601 22.94V24H27.7801V22.94L29.4601 22.54L29.2601 22.78V14.72L29.4401 14.9L27.7801 14.52V13.46L31.2601 13.34V22.78ZM30.1601 11.38C29.8001 11.38 29.5001 11.2667 29.2601 11.04C29.0334 10.8133 28.9201 10.4933 28.9201 10.08C28.9201 9.65333 29.0401 9.33333 29.2801 9.12C29.5201 8.89333 29.8201 8.78 30.1801 8.78C30.5534 8.78 30.8534 8.89333 31.0801 9.12C31.3201 9.33333 31.4401 9.65333 31.4401 10.08C31.4401 10.5067 31.3134 10.8333 31.0601 11.06C30.8201 11.2733 30.5201 11.38 30.1601 11.38ZM38.6138 24.2C37.7472 24.2 36.9605 23.9867 36.2538 23.56C35.5472 23.1333 34.9872 22.52 34.5738 21.72C34.1738 20.92 33.9738 19.9533 33.9738 18.82C33.9738 17.82 34.1138 16.9667 34.3938 16.26C34.6872 15.5533 35.0738 14.9733 35.5538 14.52C36.0472 14.0667 36.6005 13.7333 37.2138 13.52C37.8272 13.3067 38.4672 13.2 39.1338 13.2C39.7072 13.2 40.3005 13.28 40.9138 13.44C41.5405 13.5867 42.0738 13.7733 42.5138 14L42.4338 16.66H41.1138L40.8338 14.86L41.0138 15.02C40.7338 14.8867 40.4205 14.7933 40.0738 14.74C39.7272 14.6867 39.4138 14.66 39.1338 14.66C38.4805 14.66 37.9205 14.8267 37.4538 15.16C37.0005 15.48 36.6538 15.9467 36.4138 16.56C36.1738 17.16 36.0538 17.8733 36.0538 18.7C36.0538 19.5533 36.1805 20.28 36.4338 20.88C36.7005 21.48 37.0605 21.9333 37.5138 22.24C37.9672 22.5333 38.4872 22.68 39.0738 22.68C39.5272 22.68 40.0138 22.5867 40.5338 22.4C41.0538 22.2133 41.5938 21.9267 42.1538 21.54L42.8538 22.6C42.1338 23.1467 41.4205 23.5533 40.7138 23.82C40.0072 24.0733 39.3072 24.2 38.6138 24.2ZM43.5743 24V22.94L45.3543 22.52L45.0743 22.92V9.84L45.2543 10.1L43.5743 9.72V8.66L47.0743 8.52V17.78L46.7143 17.48H49.4143L48.9143 17.72L50.9143 14.52L51.0743 14.76L49.5143 14.52V13.46L54.0743 13.32V14.36L52.3143 14.74L52.8743 14.4L50.4343 18.24V17.68L53.2943 22.86L52.9543 22.56L54.5543 22.96V24H51.8143L48.9743 18.68L49.3343 18.84H46.7143L47.0743 18.66V22.92L46.8343 22.52L48.5143 22.94V24H43.5743ZM57.0029 19.46L56.6829 10H58.8229L58.5029 19.36L57.0029 19.46ZM56.5229 22.98C56.5229 22.62 56.6429 22.3333 56.8829 22.12C57.1362 21.8933 57.4229 21.78 57.7429 21.78C58.1296 21.78 58.4296 21.8933 58.6429 22.12C58.8696 22.3333 58.9829 22.62 58.9829 22.98C58.9829 23.3533 58.8562 23.6533 58.6029 23.88C58.3629 24.0933 58.0762 24.2 57.7429 24.2C57.3829 24.2 57.0896 24.0933 56.8629 23.88C56.6362 23.6533 56.5229 23.3533 56.5229 22.98Z" fill="#FF77E9"/>
</g>
<defs>
<clipPath id="clip0_48_481">
<rect width="70" height="34" fill="white"/>
</clipPath>
</defs>
</svg>
