<svg width="132" height="188" viewBox="0 0 132 188" fill="none" xmlns="http://www.w3.org/2000/svg">
<circle cx="70.5" cy="126.5" r="61.5" fill="#8F2263"/>
<path d="M1.01982e-06 26.5428C30.1192 18.5111 61.0468 36.4165 69.0786 66.5357V66.5357V66.5357C38.9593 74.5675 8.03179 56.6621 1.01982e-06 26.5428V26.5428V26.5428Z" fill="#12306C"/>
<path d="M114.566 1.52264e-05C120.036 30.688 99.5928 60.0001 68.9047 65.4703V65.4703V65.4703C63.4345 34.7823 83.8776 5.47024 114.566 1.52264e-05V1.52264e-05V1.52264e-05Z" fill="#12306C"/>
<path fill-rule="evenodd" clip-rule="evenodd" d="M71 65.002V187.998C70.8335 187.999 70.6668 188 70.5 188C36.5345 188 9 160.465 9 126.5C9 92.5345 36.5345 65 70.5 65C70.6668 65 70.8335 65.0006 71 65.002Z" fill="#6D187A"/>
</svg>
